<svg xmlns="http://www.w3.org/2000/svg" width="920" height="620" viewBox="0 0 920 620">
  <defs>
    <style>
      .bg{fill:#f8fafc}
      .title{font:700 22px Arial,sans-serif;fill:#111827}
      .sub{font:400 13px Arial,sans-serif;fill:#4b5563}
      .box{fill:#ffffff;stroke:#94a3b8;stroke-width:1.4}
      .input{fill:#e0f2fe;stroke:#0284c7}
      .service{fill:#dcfce7;stroke:#16a34a}
      .asset{fill:#fef3c7;stroke:#d97706}
      .out{fill:#ede9fe;stroke:#7c3aed}
      .view{fill:#fce7f3;stroke:#db2777}
      .txt{font:700 14px Arial,sans-serif;fill:#111827}
      .small{font:400 12px Arial,sans-serif;fill:#374151}
      .note{font:400 11px Arial,sans-serif;fill:#6b7280}
      .arrow{stroke:#475569;stroke-width:1.8;fill:none;marker-end:url(#arrow)}
    </style>
    <marker id="arrow" markerWidth="10" markerHeight="10" refX="8" refY="3" orient="auto" markerUnits="strokeWidth">
      <path d="M0,0 L0,6 L9,3 z" fill="#475569"/>
    </marker>
  </defs>
  <rect class="bg" x="0" y="0" width="920" height="620"/>
  <text x="32" y="42" class="title">Photo to 3D Room — Android</text>
  <text x="32" y="64" class="sub">Single app variant · GLB output · AI uses flat full-photo mesh (Swift parity)</text>

  <rect class="input" x="70" y="108" width="220" height="74" rx="10"/>
  <text x="180" y="137" text-anchor="middle" class="txt">SinglePhotoRoomActivity</text>
  <text x="180" y="158" text-anchor="middle" class="small">Take photo or select photo</text>

  <rect class="box" x="350" y="108" width="220" height="74" rx="10"/>
  <text x="460" y="137" text-anchor="middle" class="txt">Choose Flow</text>
  <text x="460" y="158" text-anchor="middle" class="small">AI generation or manual setup</text>

  <rect class="service" x="630" y="108" width="220" height="74" rx="10"/>
  <text x="740" y="137" text-anchor="middle" class="txt">PhotoRoomGenerationService</text>
  <text x="740" y="158" text-anchor="middle" class="small">Job lifecycle and metadata</text>

  <rect class="asset" x="72" y="274" width="222" height="92" rx="10"/>
  <text x="183" y="302" text-anchor="middle" class="txt">RoomGenerationAssets</text>
  <text x="183" y="325" text-anchor="middle" class="small">Depth Anything ONNX packaged</text>
  <text x="183" y="346" text-anchor="middle" class="small">GeoCalib export pending</text>

  <rect class="service" x="350" y="262" width="220" height="116" rx="10"/>
  <text x="460" y="290" text-anchor="middle" class="txt">SinglePhotoRoomReconstructor</text>
  <text x="460" y="312" text-anchor="middle" class="small">AI: flatPhotoMesh=true</text>
  <text x="460" y="332" text-anchor="middle" class="small">generateFlatPhotoGlb()</text>
  <text x="460" y="352" text-anchor="middle" class="small">Manual: 5-plane cuboid GLB</text>
  <text x="460" y="368" text-anchor="middle" class="note">clamp-to-edge · unlit material</text>

  <rect class="out" x="630" y="274" width="220" height="92" rx="10"/>
  <text x="740" y="302" text-anchor="middle" class="txt">Preview Folder</text>
  <text x="740" y="325" text-anchor="middle" class="small">room.glb</text>
  <text x="740" y="346" text-anchor="middle" class="small">metadata.txt</text>

  <rect class="out" x="350" y="456" width="220" height="78" rx="10"/>
  <text x="460" y="486" text-anchor="middle" class="txt">Save Room</text>
  <text x="460" y="507" text-anchor="middle" class="small">Promote preview into files/rooms</text>

  <rect class="view" x="630" y="444" width="220" height="102" rx="10"/>
  <text x="740" y="472" text-anchor="middle" class="txt">GLBRoomActivity</text>
  <text x="740" y="494" text-anchor="middle" class="small">WebView Three.js room</text>
  <text x="740" y="514" text-anchor="middle" class="small">Inline brain + full-video overlay</text>
  <text x="740" y="534" text-anchor="middle" class="note">Flat mesh: front camera framing</text>

  <path class="arrow" d="M290 145 H350"/>
  <path class="arrow" d="M570 145 H630"/>
  <path class="arrow" d="M740 182 V274"/>
  <path class="arrow" d="M630 320 H570"/>
  <path class="arrow" d="M350 320 H294"/>
  <path class="arrow" d="M570 320 H630"/>
  <path class="arrow" d="M740 366 V444"/>
  <path class="arrow" d="M630 495 H570"/>
  <path class="arrow" d="M570 495 H630"/>
</svg>
